<?xml version="1.0" standalone="no"?>
<!DOCTYPE svg PUBLIC "-//W3C//DTD SVG 20010904//EN"
 "http://www.w3.org/TR/2001/REC-SVG-20010904/DTD/svg10.dtd">
<svg version="1.0" xmlns="http://www.w3.org/2000/svg"
 width="200.000000pt" height="200.000000pt" viewBox="0 0 200.000000 200.000000"
 preserveAspectRatio="xMidYMid meet">
<metadata>
Created by potrace 1.11, written by Peter Selinger 2001-2013
</metadata>
<g transform="translate(0.000000,200.000000) scale(0.100000,-0.100000)"
fill="#000000" stroke="none">
<path d="M1023 1696 c-33 -13 -84 -39 -112 -59 -42 -31 -59 -37 -101 -37 -61
0 -67 -17 -7 -23 34 -3 38 -5 20 -11 -12 -5 -20 -13 -17 -19 2 -7 -7 -34 -21
-61 -14 -27 -25 -56 -25 -63 0 -11 -12 -13 -59 -7 -150 17 -286 -72 -327 -213
-12 -42 -20 -52 -42 -58 -38 -9 -91 -52 -114 -91 -12 -20 -28 -34 -39 -34 -10
0 -19 -4 -19 -10 0 -5 7 -10 14 -10 12 0 14 -10 9 -45 -7 -57 19 -140 55 -178
34 -36 90 -65 139 -73 21 -3 39 -7 39 -7 1 -1 4 -22 7 -45 5 -42 4 -44 -29
-58 -44 -18 -60 -52 -48 -96 12 -41 44 -58 108 -58 43 0 53 -4 83 -35 155
-159 409 -165 572 -12 l41 38 33 -24 c40 -30 60 -37 119 -44 77 -9 164 31 208
93 21 31 24 33 71 27 85 -10 174 39 214 118 21 39 30 126 17 158 -5 16 -5 34
1 51 12 32 3 72 -20 96 -13 13 -17 36 -18 103 -1 72 -5 94 -27 136 -32 61 -79
110 -130 136 -34 17 -44 34 -39 62 1 5 -6 36 -15 69 -35 123 -135 233 -256
280 -79 31 -204 33 -285 4z"/>
</g>
</svg>
